<?xml version="1.0" encoding="utf-8"?>
<!-- Generator: Adobe Illustrator 25.4.1, SVG Export Plug-In . SVG Version: 6.00 Build 0)  -->
<svg version="1.1" id="Layer_1" xmlns="http://www.w3.org/2000/svg" xmlns:xlink="http://www.w3.org/1999/xlink" x="0px" y="0px"
	 viewBox="0 0 100 21" style="enable-background:new 0 0 100 21;" xml:space="preserve">
<style type="text/css">
	.st0{fill:#004AAD;}
</style>
<g>
	<g transform="translate(3.695646, 41.287303)">
		<g>
			<path class="st0" d="M14.1-38.3c-1.1-0.4-2.2-0.7-3.3-0.7c-5.7,0-8.5,4.3-8.4,8.5c0,4.2,2.8,8.4,8.4,8.4c1.1,0,2.3-0.2,3.3-0.7
				c0.9-0.4,0.3-1.8-0.6-1.4c-0.9,0.3-1.8,0.5-2.7,0.5c-4.6,0-7-3.4-7-7c0-4,2.9-7,6.9-7c1,0,1.9,0.2,2.8,0.6
				C14.4-36.5,15-37.9,14.1-38.3z M13-27.1c-0.8,0.4-1.6,0.6-2.4,0.6C8.7-26.6,7-28,7-30.4c0-3.5,3.4-4.8,6-3.3
				c0.9,0.5,1.6-0.8,0.7-1.3c-3.6-2-8.2,0-8.2,4.6c0,3.3,2.4,5.3,5.2,5.4c1,0,2.1-0.2,3.1-0.8C14.6-26.3,13.9-27.6,13-27.1z"/>
		</g>
	</g>
</g>
<g>
	<g transform="translate(14.248562, 41.287303)">
		<g>
			<path class="st0" d="M17.8-38.1l-5.7,14l-5.7-14c-0.2-0.4-0.6-0.6-1-0.4C5-38.4,4.8-38,5-37.6l6.4,15.7c0.3,0.6,1.1,0.6,1.4,0
				l6.4-15.7c0.2-0.4,0-0.8-0.4-1C18.4-38.7,17.9-38.5,17.8-38.1z M8.4-37.6l3,7.4c0.3,0.6,1.1,0.6,1.4,0l3-7.4c0.1-0.4,0-0.8-0.4-1
				c-0.4-0.1-0.8,0-1,0.4l-2.3,5.7l-2.3-5.7c-0.2-0.4-0.6-0.6-1-0.4C8.4-38.4,8.2-38,8.4-37.6z"/>
		</g>
	</g>
</g>
<g>
	<g transform="translate(25.205419, 41.287303)">
		<g>
			<path class="st0" d="M18.7-23.6h-7v-13.5h7c0.4,0,0.8-0.3,0.8-0.8c0-0.4-0.3-0.7-0.8-0.7h-7.8c-0.4,0-0.7,0.3-0.7,0.7v15
				c0,0.4,0.3,0.7,0.7,0.7h7.8c0.4,0,0.8-0.3,0.8-0.7C19.5-23.3,19.1-23.6,18.7-23.6z M18.7-35.6h-4.8c-0.4,0-0.8,0.3-0.8,0.7v3
				c0,0.4,0.3,0.7,0.8,0.7h3.4c0.4,0,0.8-0.3,0.8-0.7c0-0.4-0.3-0.8-0.8-0.8h-2.6v-1.5h4c0.4,0,0.8-0.3,0.8-0.7
				C19.5-35.3,19.1-35.6,18.7-35.6z M17.3-29.6h-3.4c-0.4,0-0.8,0.3-0.8,0.7v3c0,0.4,0.3,0.7,0.8,0.7h4.8c0.4,0,0.8-0.3,0.8-0.7
				c0-0.4-0.3-0.8-0.8-0.8h-4v-1.5h2.6c0.4,0,0.8-0.3,0.8-0.8C18.1-29.3,17.7-29.6,17.3-29.6z"/>
		</g>
	</g>
</g>
<g>
	<g transform="translate(34.411872, 41.287303)">
		<g>
			<path class="st0" d="M14.8-22.8v-14.2h5.2c1,0,1.9,0.4,2.6,1.1c2.3,2.3,0.7,6.4-2.6,6.4c-0.6,0-1,0.7-0.6,1.2l4.2,5.9
				c0.5,0.8,1.8-0.1,1.2-0.9l-3.5-5c0.9-0.2,1.7-0.7,2.4-1.4c3.2-3.3,0.9-9-3.7-9H14c-0.4,0-0.8,0.3-0.8,0.7v15
				C13.3-21.9,14.8-21.9,14.8-22.8z M19.7-31.1c1.2,0,2.3-1,2.3-2.2c0-1.1-0.9-2.3-2.3-2.3H17c-1,0-1,1.5,0,1.5h2.7
				c0.4,0,0.8,0.3,0.8,0.8c0,0.9-0.8,0.8-1.5,0.8c-1.2,0-1.2,1.4,0,1.5C19.2-31.1,19.5-31.1,19.7-31.1z M21.1-23.3l-3.4-4.9
				c-0.4-0.6-1.4-0.3-1.4,0.5v4.9c0,1,1.5,1,1.5,0v-2.6l2.1,3C20.4-21.6,21.6-22.5,21.1-23.3z"/>
		</g>
	</g>
</g>
<g>
	<g transform="translate(44.914299, 41.287303)">
		<g>
			<path class="st0" d="M18.3-22.8v-15c0-0.4-0.3-0.7-0.7-0.7c-0.4,0-0.8,0.3-0.8,0.7v15c0,0.4,0.3,0.7,0.8,0.7
				C17.9-22.1,18.3-22.4,18.3-22.8z M21.3-22.8v-15c0-0.4-0.3-0.7-0.7-0.7c-0.4,0-0.8,0.3-0.8,0.7v15c0,0.4,0.3,0.7,0.8,0.7
				C20.9-22.1,21.3-22.4,21.3-22.8z"/>
		</g>
	</g>
</g>
<g>
	<g transform="translate(51.007052, 41.287303)">
		<g>
			<path class="st0" d="M20.3-22.8v-14.2h7c0.4,0,0.8-0.3,0.8-0.8c0-0.4-0.3-0.7-0.8-0.7h-7.8c-0.4,0-0.7,0.3-0.7,0.7v15
				c0,0.4,0.3,0.7,0.7,0.7C19.9-22.1,20.3-22.4,20.3-22.8z M27.3-35.6h-4.8c-0.4,0-0.8,0.3-0.8,0.7v3c0,0.4,0.3,0.7,0.8,0.7h3.4
				c0.4,0,0.7-0.3,0.7-0.7c0-0.4-0.3-0.8-0.7-0.8h-2.6v-1.5h4c0.4,0,0.8-0.3,0.8-0.7C28.1-35.3,27.7-35.6,27.3-35.6z M25.9-29.6
				h-3.4c-0.4,0-0.8,0.3-0.8,0.7v6c0,0.4,0.3,0.7,0.8,0.7c0.4,0,0.7-0.3,0.7-0.7v-5.2h2.6c0.4,0,0.7-0.3,0.7-0.8
				C26.7-29.3,26.3-29.6,25.9-29.6z"/>
		</g>
	</g>
</g>
<g>
	<g transform="translate(59.94421, 41.287303)">
		<g>
			<path class="st0" d="M26.9-22.6v-7.1c0-0.2,0-0.3-0.1-0.4l-5.2-8.3c-0.2-0.4-0.7-0.5-1-0.2c-0.4,0.2-0.4,0.7-0.2,1l5.1,8.2v6.9
				c0,0.4,0.3,0.8,0.8,0.8C26.5-21.9,26.9-22.2,26.9-22.6z M33.7-38.5l-5.3,8.4c-0.1,0.1-0.1,0.3-0.1,0.4v7.1c0,0.4,0.4,0.8,0.8,0.8
				c0.4,0,0.8-0.3,0.8-0.8v-6.9l5.1-8.2c0.2-0.4,0.1-0.8-0.2-1C34.4-39,33.9-38.9,33.7-38.5z M23.9-37.7l3,5.1c0.3,0.6,1,0.6,1.3,0
				l3.1-5.1c0.2-0.4,0.1-0.8-0.3-1c-0.3-0.2-0.8-0.1-1,0.2l-2.4,4.1l-2.4-4.1c-0.2-0.4-0.7-0.5-1-0.2C23.8-38.6,23.7-38.1,23.9-37.7
				z"/>
		</g>
	</g>
</g>
</svg>
