<?xml version="1.0" standalone="no"?>
<!DOCTYPE svg PUBLIC "-//W3C//DTD SVG 20010904//EN"
 "http://www.w3.org/TR/2001/REC-SVG-20010904/DTD/svg10.dtd">
<svg version="1.0" xmlns="http://www.w3.org/2000/svg"
 width="3200.000000pt" height="3200.000000pt" viewBox="0 0 3200.000000 3200.000000"
 preserveAspectRatio="xMidYMid meet">
<metadata>
Created by potrace 1.14, written by Peter Selinger 2001-2017
</metadata>
<g transform="translate(0.000000,3200.000000) scale(0.100000,-0.100000)"
fill="#000000" stroke="none">
<path d="M4420 18620 c-229 -15 -444 -53 -655 -114 -978 -286 -1650 -1097
-1790 -2161 -47 -354 -24 -781 60 -1130 224 -933 861 -1619 1741 -1875 568
-166 1246 -155 1733 27 157 58 247 108 280 154 106 146 8 374 -167 387 -47 3
-80 -3 -183 -36 -340 -109 -606 -149 -899 -138 -632 25 -1134 234 -1526 637
-260 268 -440 596 -539 983 -59 230 -70 329 -70 626 1 290 12 390 74 626 221
841 886 1440 1756 1580 157 25 483 30 646 9 221 -28 425 -86 622 -177 109 -50
164 -53 230 -15 125 73 134 281 16 367 -60 43 -370 145 -589 193 -245 55 -491
74 -740 57z"/>
<path d="M27010 18577 c-42 -14 -127 -63 -157 -90 -59 -53 -68 -179 -20 -273
63 -121 986 -1678 1011 -1705 85 -90 226 -91 307 -3 42 45 1041 1693 1061
1749 24 69 22 112 -8 174 -72 143 -292 178 -396 63 -18 -20 -203 -329 -412
-685 -208 -357 -382 -645 -387 -640 -4 4 -181 305 -394 668 -212 363 -398 673
-413 688 -51 54 -128 76 -192 54z"/>
<path d="M30115 18581 c-43 -11 -87 -36 -111 -63 -29 -32 -1741 -2749 -1754
-2782 -7 -18 -10 -430 -10 -1214 0 -1133 1 -1189 19 -1228 46 -100 139 -164
238 -164 98 1 181 50 226 135 l22 40 3 1143 2 1143 817 1312 c448 722 822
1329 829 1351 33 93 7 206 -59 262 -62 52 -159 81 -222 65z"/>
<path d="M25825 18533 c-57 -30 -118 -87 -136 -127 -21 -47 -24 -116 -6 -166
7 -19 383 -630 835 -1356 l822 -1321 2 -1139 3 -1139 24 -47 c38 -77 104 -126
192 -142 35 -6 39 -4 110 71 127 133 114 -25 116 1358 2 941 0 1205 -10 1222
-35 64 -1696 2709 -1716 2734 -51 64 -166 89 -236 52z"/>
<path d="M15414 18519 c-56 -16 -127 -72 -151 -118 l-23 -44 2 -2461 3 -2461
22 -40 c52 -97 145 -155 251 -155 97 0 168 39 210 115 16 28 17 208 20 2333
l2 2302 863 0 c532 0 894 -4 945 -10 379 -48 730 -299 907 -650 92 -183 130
-362 122 -575 -18 -447 -251 -827 -637 -1038 -129 -71 -345 -127 -489 -127
-98 0 -164 -23 -215 -74 -72 -71 -94 -170 -58 -256 21 -50 1400 -1975 1436
-2004 27 -22 49 -30 90 -34 169 -14 313 141 273 294 -10 38 -139 230 -586 867
-315 450 -571 820 -570 821 2 2 33 11 69 20 325 88 674 351 891 673 513 759
292 1846 -479 2364 -127 85 -239 139 -391 189 -238 78 -175 74 -1391 77 -641
1 -1098 -2 -1116 -8z"/>
<path d="M7384 18501 c-56 -25 -111 -76 -136 -125 -47 -92 -68 -31 476 -1371
l495 -1220 50 -46 c31 -29 66 -50 95 -59 98 -27 209 12 264 93 16 23 246 579
512 1235 471 1164 483 1195 483 1260 0 77 -17 123 -62 175 -89 101 -290 84
-366 -32 -14 -21 -189 -444 -390 -941 -200 -496 -367 -905 -370 -908 -3 -3 -7
-3 -9 -1 -2 2 -169 415 -371 917 -398 986 -392 975 -486 1022 -49 25 -130 26
-185 1z"/>
<path d="M10427 18496 c-52 -14 -106 -49 -135 -86 -10 -14 -73 -160 -140 -325
-66 -165 -246 -608 -400 -985 -153 -377 -512 -1258 -797 -1957 -285 -700 -521
-1273 -524 -1273 -3 0 -406 985 -895 2188 -490 1203 -904 2219 -922 2257 -50
110 -132 175 -222 175 -47 0 -142 -31 -183 -60 -16 -12 -38 -39 -49 -60 -44
-86 -60 -41 434 -1252 249 -612 716 -1756 1036 -2543 321 -786 592 -1443 603
-1458 31 -44 93 -85 151 -98 78 -17 156 7 217 69 42 43 57 76 192 407 80 198
548 1343 1038 2545 800 1960 892 2191 892 2240 1 67 -25 121 -82 173 -61 55
-123 67 -214 43z"/>
<path d="M11486 18490 c-66 -20 -127 -82 -146 -151 -6 -22 -10 -920 -10 -2465
0 -2163 2 -2436 15 -2475 19 -52 55 -93 110 -122 l40 -22 1310 0 c1233 0 1312
1 1348 18 51 24 117 85 134 124 34 82 3 189 -70 243 -85 63 -31 60 -1274 60
l-1133 0 0 2160 0 2160 1133 0 c1285 0 1203 -5 1286 78 56 56 75 113 69 201
-5 77 -38 127 -109 166 l-54 30 -1310 2 c-720 1 -1323 -2 -1339 -7z"/>
<path d="M19921 18451 c-67 -23 -98 -47 -136 -100 l-30 -43 -3 -2445 c-1
-1764 1 -2457 9 -2487 23 -85 132 -156 238 -156 93 0 201 90 221 184 8 36 10
743 8 2476 -3 2345 -4 2426 -22 2460 -57 108 -170 152 -285 111z"/>
<path d="M20882 18452 c-68 -25 -120 -67 -149 -122 l-23 -43 0 -2446 c0 -2344
1 -2448 19 -2486 35 -78 133 -135 230 -135 93 0 201 90 221 184 8 36 10 742 8
2476 -3 2345 -4 2426 -22 2460 -57 107 -170 152 -284 112z"/>
<path d="M22489 18455 c-56 -18 -123 -86 -138 -141 -8 -27 -11 -777 -11 -2480
l0 -2442 28 -53 c20 -39 41 -62 77 -84 111 -69 285 -20 348 98 l22 42 3 2297
2 2298 1158 2 1157 3 40 22 c84 45 135 129 135 223 0 94 -49 168 -135 207 -38
17 -111 18 -1340 20 -1104 2 -1307 0 -1346 -12z"/>
<path d="M4359 17575 c-369 -58 -674 -210 -929 -465 -139 -138 -218 -246 -298
-406 -245 -488 -250 -1138 -13 -1627 249 -516 746 -851 1362 -918 356 -39 833
66 1116 247 129 82 148 247 42 367 -83 95 -178 101 -354 20 -376 -173 -725
-207 -1044 -103 -178 58 -336 154 -467 284 -174 174 -277 375 -331 642 -26
136 -24 415 6 554 94 441 353 747 751 888 150 53 237 66 425 67 141 0 188 -4
274 -23 139 -31 252 -72 395 -143 102 -51 127 -59 174 -59 101 0 183 60 217
159 46 137 -11 234 -195 326 -194 97 -396 161 -603 190 -127 18 -411 18 -528
0z"/>
<path d="M12430 17525 c-58 -18 -128 -77 -151 -129 -17 -38 -19 -77 -19 -566
0 -585 -1 -574 70 -633 76 -64 48 -62 689 -65 396 -2 600 1 636 8 70 15 139
62 172 117 50 86 28 208 -52 286 -68 66 -77 67 -567 67 l-438 0 0 240 0 239
673 3 c751 3 703 -1 789 76 49 44 68 85 68 149 0 95 -68 177 -174 208 -72 22
-1627 21 -1696 0z"/>
<path d="M16368 17524 c-55 -17 -110 -67 -134 -122 -10 -21 -17 -65 -17 -102
-1 -54 4 -74 28 -118 16 -30 42 -63 58 -74 64 -46 93 -48 586 -48 290 0 480
-4 503 -10 101 -28 178 -134 178 -244 0 -82 -15 -129 -53 -173 -58 -66 -96
-76 -319 -83 -195 -6 -197 -7 -261 -38 -84 -42 -119 -90 -125 -173 -6 -81 17
-137 75 -189 53 -46 165 -87 211 -76 88 22 115 25 187 26 215 2 387 69 538
210 298 277 301 711 7 1011 -114 116 -243 183 -401 208 -38 7 -254 11 -539 10
-387 0 -484 -3 -522 -15z"/>
<path d="M23432 17521 c-60 -21 -114 -68 -143 -123 -18 -35 -19 -65 -19 -565
0 -493 2 -531 19 -568 23 -49 63 -88 116 -112 37 -17 87 -18 620 -21 405 -3
596 0 632 8 114 25 178 111 171 230 -2 36 -13 83 -23 105 -27 55 -87 112 -132
124 -24 7 -195 11 -465 11 l-428 0 0 240 0 239 673 3 672 3 45 24 c91 48 140
116 140 197 0 60 -22 104 -75 153 -80 73 -50 71 -949 71 -751 -1 -804 -2 -854
-19z"/>
<path d="M12430 15605 c-58 -18 -128 -77 -151 -129 -17 -38 -19 -77 -19 -566
0 -585 -1 -574 70 -633 78 -66 19 -62 945 -62 940 0 870 -5 957 73 49 44 68
85 68 148 0 103 -53 188 -144 230 l-51 24 -667 0 -668 0 0 240 0 240 423 0
c251 0 440 5 467 11 93 21 170 98 189 191 16 74 1 117 -58 170 -88 80 -74 78
-735 77 -467 0 -590 -3 -626 -14z"/>
<path d="M23432 15601 c-60 -21 -114 -68 -143 -123 -18 -36 -19 -72 -19 -1045
0 -960 1 -1010 19 -1048 39 -85 114 -127 226 -129 86 -1 144 27 190 92 l30 44
5 871 5 872 450 5 c492 5 478 4 536 67 39 41 58 84 70 160 24 140 9 181 -79
225 l-47 23 -595 2 c-557 3 -598 1 -648 -16z"/>
<path d="M16397 15256 c-55 -20 -103 -61 -134 -114 l-28 -47 0 -866 0 -866 30
-48 c42 -68 113 -105 201 -105 103 0 171 39 217 125 21 39 22 53 27 487 l5
447 352 -504 c320 -457 357 -505 396 -524 109 -53 248 6 313 131 27 52 30 137
7 189 -16 35 -959 1404 -1111 1613 -61 84 -174 118 -275 82z"/>
</g>
</svg>
